<svg width="161" height="36" viewBox="0 0 161 36" fill="none" xmlns="http://www.w3.org/2000/svg">
<path d="M102.364 1.1124H106.108V3.527C106.478 3.27912 106.863 3.005 107.28 2.72505C107.817 2.36636 108.403 1.99892 109.065 1.6723C110.401 1.01033 112.045 0.5 114.218 0.5C121.438 0.5 121.879 5.67622 121.879 9.73263V10.8641H130.522V2.65797H134.267V10.8612H141.572C142.423 3.29662 146.777 0.543743 152.224 0.543743C157.815 0.543743 160.64 4.13356 160.999 11.0449C161.002 11.1149 160.996 11.1878 160.999 11.2607V14.034H145.167C145.438 21.2399 148.97 22.4355 153.884 22.4355C155.581 22.4355 158.832 22.0418 159.675 21.7473L159.876 21.6773L160.568 24.8384L160.422 24.8997C159.64 25.2205 155.718 25.7425 152.834 25.7425C145.937 25.7425 141.557 22.975 141.435 14.034H134.261V25.3488H130.516V14.034H121.873V23.8003H118.172V10.4354C118.172 6.67355 117.606 3.80987 113.384 3.80987C112.034 3.80987 110.462 4.42518 109.08 5.13673C107.773 5.81037 106.659 6.55982 106.102 6.91268V14.0311H94.0058V25.3459H90.3927V22.7067C89.5004 23.2812 88.4214 24.0161 87.1324 24.6343C85.6889 25.3254 83.98 25.8708 81.9766 25.8708C75.1032 25.8708 74.4908 20.6071 74.4908 16.5507V14.0311H66.3984C67.6465 15.0809 68.4981 16.504 68.4981 18.6037C68.4981 24.2406 63.5201 25.7833 59.6125 25.7833C56.3668 25.7833 52.9286 25.0834 52.1966 24.7626L52.0625 24.7043L52.602 21.4178L52.809 21.479C54.1067 21.8698 57.1483 22.4763 59.0001 22.4763C62.7065 22.4763 64.8383 21.1291 64.8383 19.0411C64.8383 17.5305 63.9722 16.6265 62.6511 15.9178C61.9833 15.5592 61.2135 15.2588 60.4057 14.9613C59.5979 14.6639 58.7551 14.3723 57.9357 14.034H44.4104V20.4408C44.4104 22.2168 45.4574 22.523 46.4489 22.523H46.6559L46.408 25.5996L46.2447 25.6112C44.3375 25.7366 41.2872 25.3196 40.879 22.7096C40.6573 22.8788 40.4007 23.0887 40.0974 23.3191C39.6571 23.6545 39.1205 24.0277 38.4673 24.3806C37.1521 25.0892 35.3645 25.6987 32.9061 25.6987C28.6106 25.6987 25.989 23.2579 25.989 18.7815C25.989 16.6673 26.6743 15.1334 27.7445 14.034H20.0137V26.6786C20.0137 33.0883 14.715 35.5 9.82751 35.5C6.28144 35.5 3.00658 34.7476 2.07048 34.4793L1.90426 34.4327L2.45542 31.4261L2.64789 31.4698C3.61023 31.6886 6.97841 32.1697 8.85934 32.1697C13.1461 32.1697 16.2868 31.2686 16.2868 25.9728V23.7945C14.855 24.8151 13.0207 25.6783 10.7519 25.6783C5.76528 25.6725 0.215797 24.1852 0.00583235 13.7803L0 13.2C0 12.433 0.0437426 11.7011 0.134144 11.0041C0.988584 4.2298 5.83527 0.765372 11.551 0.765372C12.4375 0.765372 13.3619 0.809115 14.2951 0.88202L14.4701 0.896601V4.16856L14.2659 4.15397C13.499 4.09273 12.6066 4.05482 11.5072 4.05482C6.68096 4.05482 4.46467 7.0964 3.88435 11.0595C3.77645 11.7915 3.72687 12.5526 3.72687 13.3341V13.7774C3.86393 19.913 6.55556 22.4355 10.9794 22.4355C13.3561 22.4355 15.2662 20.9249 16.2606 20.1142V10.8641H40.8469V8.20747C40.8469 4.36102 39.138 3.80987 34.8775 3.80987C33.8101 3.80987 32.6028 4.03441 31.5355 4.29104C30.4653 4.54766 29.5467 4.83053 29.0655 4.94134L28.8876 4.98217L28.1003 2.02516L28.249 1.96101C29.2726 1.51483 32.3141 0.546659 35.8398 0.546659C40.669 0.546659 44.4192 2.00767 44.4192 7.1139V10.8641H53.6926C53.1502 9.96301 52.8324 8.84903 52.8324 7.46092C52.8324 2.90293 56.4163 0.587485 61.1056 0.587485C63.838 0.587485 66.2643 1.24654 66.9408 1.51775L67.0925 1.57899L66.3547 4.67889L66.1651 4.62931C65.6665 4.49808 64.9812 4.27937 64.083 4.09565C63.1906 3.91193 62.0912 3.76029 60.7527 3.76029C57.8044 3.76029 56.5301 5.06382 56.5301 6.93309C56.5301 8.90735 57.9852 9.95717 59.9828 10.8583H78.1943V15.8449C78.1943 19.6214 78.5939 22.558 82.8107 22.558C85.0853 22.558 89.1942 20.0705 90.3985 19.3239V5.12798H94.0117V10.8612H102.364V1.1124ZM33.6964 22.5609C36.0469 22.5609 40.1995 19.8489 40.8469 19.4173V14.0311H33.918C30.789 14.5297 29.5642 16.0899 29.5642 18.4724C29.5642 21.5344 31.2906 22.5638 33.6993 22.5638M145.263 10.8641H157.056C156.957 6.24196 155.111 3.50075 151.702 3.50075C148.293 3.50075 145.797 5.83953 145.263 10.8641Z" fill="#6B7175"/>
</svg>
