<svg version="1.2" xmlns="http://www.w3.org/2000/svg" viewBox="0 0 1215 667" width="1215" height="667">
	<title>Lehman_Brothers-svg</title>
	<style>
		.s0 { fill: #005f4e } 
	</style>
	<g id="layer1">
		<g id="g3">
			<path id="path9" fill-rule="evenodd" class="s0" d="m502.2 640.4c-6.4 12.8-12.8 22.4-25.7 22.4-16.1 0-173.9-6.4-209.3-6.4-38.6 0-209.3 6.4-231.8 6.4-12.9 0-35.4-6.4-35.4-16.1 0-16 29-22.4 45.1-25.7 51.5-6.4 64.4-38.6 64.4-99.7v-399c-3.2-61.1-3.2-77.3-54.8-83.7-35.4-3.2-45-3.2-45-19.3 0-12.8 16.1-16.1 29-16.1 22.5 0 74 6.5 109.4 6.5 38.7 0 106.3-6.5 122.4-6.5 9.6 0 22.5 6.5 22.5 19.3 0 9.7-12.9 16.1-32.2 16.1-45.1 9.7-54.7 22.6-54.7 83.7v421.5c0 29 6.4 67.6 61.1 67.6h51.5c83.7 0 135.3-16.2 173.9-83.7 16.1-25.8 35.4-41.8 51.5-35.4 12.9 3.2 3.2 25.7-3.2 41.8-9.7 19.3-29 77.3-38.7 106.3z"/>
			<path id="path23" fill-rule="evenodd" class="s0" d="m960 666.1c-70.8 0-160.9-9.7-196.4-9.7-35.4 0-86.9 6.4-109.4 6.4-12.9 0-29-6.4-29-16.1 0-16 19.3-22.4 38.7-25.7 51.5-6.4 54.7-16.1 57.9-80.4v-421.5c0-54.7 0-80.5-51.5-80.5-32.2 0-45.1-6.4-45.1-22.5 0-9.6 16.1-16.1 29-16.1 22.5 0 86.9 6.5 122.3 6.5 32.2 0 83.8-3.2 141.7-3.2 103.1 0 257.6 51.4 257.6 176.9 0 67.6-38.7 115.9-99.8 128.7-12.9 3.3-16.1 6.5 3.2 12.9 32.2 12.9 70.8 35.4 93.4 57.9 25.7 25.8 41.8 61.2 41.8 106.2 0 93.3-51.5 180.2-254.4 180.2zm-32.1-48.3c32.1 0 70.8-3.2 99.7-16.1 41.9-16.1 67.7-54.7 67.7-109.4 0-45.1-9.7-70.7-29-86.9-16.1-19.3-32.2-28.9-58-38.6-28.9-12.9-77.2-25.7-109.4-25.7h-41.8c-29 0-38.7 9.6-38.7 38.6v160.9c0 51.4 29 77.2 80.5 77.2zm-12.9-318.6c32.2 0 70.8-6.4 99.8-28.9 25.8-19.4 41.8-54.7 41.8-90.1 0-48.3-22.5-80.5-80.4-106.2-32.2-16.1-80.5-22.5-112.7-22.5-48.3 0-45.1 19.3-45.1 80.4v141.6c0 12.9 3.2 25.7 45.1 25.7z"/>
		</g>
	</g>
</svg>